# xmcd
#
# Track frame offsets:
#	150
#	13627
#	28530
#	41625
#	53585
#	69637
#	83465
#	96707
#	108610
#	120570
#	134120
#	148915
#	161635
#	171590
#	187257
#	198545
#	213772
#	225087
#	237625
#	251835
#
# Disc length: 3499 seconds
#
# Revision: 1
# Processed by: cddbd v1.4PL0 Copyright (c) Steve Scherf et al.
# Submitted via: audiograbber 1.80.04
#
DISCID=2c0da914
DTITLE=Los 3 Diamantes - 50 años D1
DYEAR=1998
DGENRE=Tríos
TTITLE0=La gloria eres tú
TTITLE1=Usted
TTITLE2=Miénteme
TTITLE3=Sigamos pecando
TTITLE4=Mil violines
TTITLE5=Orfeo negro
TTITLE6=La luna dijo que no
TTITLE7=Buen viaje
TTITLE8=Duda
TTITLE9=Mala noche
TTITLE10=Que murmuren
TTITLE11=Rebeldía
TTITLE12=Quizás, quizás, quizás...
TTITLE13=Bendita seas
TTITLE14=Por última vez
TTITLE15=Luces en el puerto
TTITLE16=Tango azul
TTITLE17=Llévame contigo
TTITLE18=Cuando me vaya
TTITLE19=Un corazón
EXTD=Disco 1 de 5
EXTT0=
EXTT1=
EXTT2=
EXTT3=
EXTT4=
EXTT5=
EXTT6=
EXTT7=
EXTT8=
EXTT9=
EXTT10=
EXTT11=
EXTT12=
EXTT13=
EXTT14=
EXTT15=
EXTT16=
EXTT17=
EXTT18=
EXTT19=
PLAYORDER=
